<?xml version="1.0" standalone="no"?>
<!DOCTYPE svg PUBLIC "-//W3C//DTD SVG 20010904//EN"
 "http://www.w3.org/TR/2001/REC-SVG-20010904/DTD/svg10.dtd">
<svg version="1.0" xmlns="http://www.w3.org/2000/svg"
 width="400.000000pt" height="400.000000pt" viewBox="0 0 400.000000 400.000000"
 preserveAspectRatio="xMidYMid meet">
<metadata>
Created by potrace 1.16, written by Peter Selinger 2001-2019
</metadata>
<g transform="translate(0.000000,400.000000) scale(0.100000,-0.100000)"
fill="#000000" stroke="none">
<path d="M1780 3829 c-239 -36 -400 -83 -584 -173 -414 -201 -738 -547 -910
-975 -94 -232 -130 -424 -130 -691 0 -267 36 -459 130 -691 233 -578 726 -989
1349 -1124 233 -51 557 -45 800 14 391 96 736 310 992 616 109 130 234 340
298 500 100 253 148 559 125 812 -25 285 -83 492 -202 722 -280 540 -789 899
-1397 986 -112 16 -378 18 -471 4z m-80 -1083 c134 -26 230 -69 328 -145 l56
-44 -114 -108 -114 -107 -42 28 c-134 93 -344 93 -478 0 -298 -204 -242 -643
97 -769 115 -42 280 -21 383 49 50 35 110 102 142 159 l23 41 -210 0 -211 0 0
160 0 160 369 0 c285 0 372 -3 378 -12 4 -7 9 -62 11 -123 5 -133 -18 -237
-78 -360 -82 -170 -249 -314 -430 -373 -197 -63 -382 -50 -565 40 -155 77
-261 182 -338 334 -59 116 -72 178 -72 334 0 156 14 218 72 334 149 296 478
462 793 402z m1220 -476 l0 -130 130 0 130 0 0 -95 0 -95 -130 0 -130 0 0
-130 0 -130 -100 0 -100 0 0 130 0 130 -130 0 -130 0 0 94 c0 76 3 95 16 100
9 3 67 6 130 6 l114 0 0 125 0 125 100 0 100 0 0 -130z"/>
</g>
</svg>
