<?xml version="1.0" standalone="no"?>
<!DOCTYPE svg PUBLIC "-//W3C//DTD SVG 20010904//EN"
 "http://www.w3.org/TR/2001/REC-SVG-20010904/DTD/svg10.dtd">
<svg version="1.0" xmlns="http://www.w3.org/2000/svg"
 width="300.000000pt" height="300.000000pt" viewBox="0 0 300.000000 300.000000"
 preserveAspectRatio="xMidYMid meet">

<g transform="translate(0.000000,300.000000) scale(0.100000,-0.100000)"
fill="#000000" stroke="none">
<path d="M1343 2530 c-200 -23 -493 -122 -571 -194 -53 -47 -52 -40 -52 -561
l0 -485 -65 0 -65 0 0 -210 0 -210 64 0 64 0 12 -37 c35 -111 97 -155 257
-182 217 -38 386 -96 481 -168 l32 -24 33 24 c94 71 263 130 479 167 58 10
120 26 137 34 49 26 99 84 116 137 l17 49 59 0 c49 0 59 3 59 18 1 9 2 104 3
210 l2 192 -62 0 -63 0 0 480 c0 516 0 520 -51 567 -57 53 -319 150 -477 179
-105 18 -311 26 -409 14z m429 -60 c175 -36 396 -126 442 -181 l26 -31 0 -485
c0 -383 -3 -484 -12 -481 -10 4 -14 114 -18 489 -3 266 -9 490 -13 497 -29 44
-319 150 -486 178 -137 22 -388 15 -506 -14 -164 -42 -354 -117 -395 -158 -13
-13 -16 -87 -20 -501 -4 -377 -8 -487 -17 -491 -10 -3 -13 97 -13 478 0 441 1
484 18 512 42 73 377 191 602 212 88 8 296 -5 392 -24z m-12 -45 c168 -36 410
-133 424 -170 3 -9 6 -88 6 -175 l0 -158 -92 -6 c-51 -3 -179 -9 -284 -12
l-191 -6 -6 38 c-4 22 -7 60 -7 86 0 55 1 56 110 62 229 13 290 24 290 48 0 4
-17 8 -37 8 -29 0 -34 3 -25 12 26 26 10 30 -16 5 -30 -29 -57 -33 -112 -17
-19 6 -54 11 -78 12 -24 1 -45 5 -48 10 -3 4 -16 8 -30 8 -14 0 -39 7 -55 16
-17 8 -37 13 -45 10 -8 -3 -14 1 -14 10 0 35 -61 124 -85 124 -18 0 -57 -78
-58 -115 -1 -30 -5 -34 -33 -40 -18 -3 -43 -14 -55 -24 -13 -10 -35 -22 -49
-26 -14 -4 -29 -11 -35 -14 -5 -4 -30 -13 -55 -20 -25 -7 -59 -17 -76 -22 -17
-5 -46 -6 -64 -3 -23 5 -31 4 -26 -4 3 -6 -2 -13 -13 -17 -11 -3 -24 -12 -31
-20 -9 -11 11 -13 127 -9 177 5 207 5 214 -4 4 -4 9 -31 11 -60 l5 -54 -156 6
c-86 4 -202 9 -258 12 l-103 6 0 158 c0 87 3 166 6 175 12 31 198 112 346 151
175 46 433 54 598 19z m-410 -625 c0 -11 5 -20 10 -20 6 0 10 -7 10 -15 0 -16
9 -15 -285 -55 -121 -17 -232 -33 -247 -36 l-28 -6 0 66 c0 36 1 67 3 68 3 2
319 14 440 16 91 2 97 1 97 -18z m808 4 l32 -5 0 -66 c0 -62 -1 -65 -22 -60
-13 3 -144 22 -293 43 -148 20 -271 38 -272 39 -2 1 -6 16 -9 34 l-7 33 269
-6 c148 -4 284 -9 302 -12z m-654 -211 c9 -49 18 -135 19 -193 l2 -105 -39 0
c-37 0 -39 2 -43 35 -5 39 -5 40 2 125 9 108 27 225 34 225 4 0 15 -39 25 -87z
m405 22 c151 -30 276 -55 278 -55 2 0 3 -27 3 -61 0 -49 -3 -60 -14 -56 -8 3
-142 45 -298 92 -156 48 -286 90 -290 93 -4 4 -5 17 -2 30 5 16 12 21 28 17
11 -3 145 -30 295 -60z m-533 30 c4 -14 5 -28 3 -29 -2 -2 -124 -41 -271 -85
-147 -45 -274 -84 -283 -87 -12 -5 -15 4 -15 54 l0 61 53 10 c320 66 484 99
494 100 7 1 15 -10 19 -24z m573 -240 c129 -49 236 -96 239 -102 3 -10 -56
-13 -275 -13 l-278 0 -19 53 c-16 44 -28 165 -18 189 1 4 28 -3 60 -15 31 -12
162 -62 291 -112z m-584 38 c-10 -37 -17 -78 -17 -90 1 -11 -5 -24 -13 -27 -8
-3 -15 -12 -15 -21 0 -13 -33 -15 -256 -15 -200 0 -255 3 -252 13 6 16 550
227 562 217 4 -5 0 -39 -9 -77z m-500 -368 l0 -80 -87 -3 -88 -3 0 86 0 86 88
-3 87 -3 0 -80z m119 33 l46 -53 0 53 c0 45 3 52 20 52 18 0 20 -7 20 -85 0
-77 -2 -85 -19 -85 -11 0 -41 25 -70 58 l-51 57 0 -57 c0 -51 -2 -58 -20 -58
-18 0 -20 7 -20 85 0 83 1 85 24 85 17 0 38 -16 70 -52z m284 -35 c3 -78 2
-83 -18 -83 -16 0 -20 6 -20 31 0 30 -1 30 -47 27 -44 -3 -48 -5 -51 -30 -2
-20 -9 -28 -23 -28 -17 0 -19 7 -19 69 0 104 -1 102 94 99 l81 -3 3 -82z m276
71 c3 -9 4 -20 0 -25 -7 -12 -34 -11 -34 1 0 6 -22 10 -50 10 -43 0 -50 -3
-50 -20 0 -18 7 -20 64 -20 68 0 76 -6 76 -55 0 -37 -22 -46 -102 -43 -67 3
-73 5 -76 26 -3 17 2 22 17 22 12 0 21 -5 21 -11 0 -6 19 -9 47 -7 36 2 49 7
51 20 3 14 -7 18 -65 20 l-68 3 -3 33 c-6 58 -1 62 87 62 63 0 80 -3 85 -16z
m191 -39 l0 -50 -67 -3 c-68 -3 -68 -3 -68 -32 0 -23 -5 -30 -20 -30 -18 0
-20 7 -20 85 l0 86 88 -3 87 -3 0 -50z m190 -30 l0 -80 -73 -3 c-93 -4 -102 3
-102 78 0 91 0 91 94 88 l81 -3 0 -80z m203 35 c3 -33 -1 -47 -14 -57 -16 -12
-16 -14 -1 -31 22 -24 21 -32 -4 -32 -11 0 -32 14 -46 30 -15 18 -34 30 -49
30 -20 0 -24 -5 -24 -30 0 -23 -4 -30 -20 -30 -18 0 -20 7 -20 85 l0 86 88 -3
87 -3 3 -45z m192 35 c0 -10 -11 -15 -35 -15 l-35 0 0 -70 c0 -63 -2 -70 -20
-70 -18 0 -20 7 -20 70 l0 70 -35 0 c-24 0 -35 5 -35 15 0 12 17 15 90 15 73
0 90 -3 90 -15z m-1521 -308 c12 -34 50 -76 86 -95 11 -5 74 -19 140 -31 143
-24 274 -65 388 -122 l84 -41 96 46 c117 55 258 98 396 120 57 9 113 22 125
28 37 19 75 60 87 95 14 43 41 46 29 3 -25 -88 -92 -131 -240 -155 -174 -28
-380 -98 -462 -156 l-28 -20 -29 20 c-80 57 -290 128 -461 156 -148 24 -215
67 -240 155 -12 43 15 40 29 -3z m1384 16 c-12 -34 -45 -73 -71 -87 -15 -8
-61 -19 -102 -25 -169 -26 -360 -86 -469 -147 -44 -24 -44 -24 -75 -5 -95 58
-306 126 -471 151 -111 17 -150 40 -174 103 l-11 27 690 0 c652 0 689 -1 683
-17z"/>
<path d="M732 1078 l3 -53 48 -3 47 -3 0 55 0 56 -51 0 -50 0 3 -52z"/>
<path d="M1130 1105 c0 -23 3 -25 50 -25 47 0 50 2 50 25 0 23 -3 25 -50 25
-47 0 -50 -2 -50 -25z"/>
<path d="M1600 1105 c0 -23 3 -25 50 -25 47 0 50 2 50 25 0 23 -3 25 -50 25
-47 0 -50 -2 -50 -25z"/>
<path d="M1792 1078 l3 -53 48 -3 47 -3 0 55 0 56 -51 0 -50 0 3 -52z"/>
<path d="M1990 1105 c0 -23 3 -25 50 -25 47 0 50 2 50 25 0 23 -3 25 -50 25
-47 0 -50 -2 -50 -25z"/>
<path d="M392 1328 c-16 -29 -43 -78 -60 -108 l-31 -56 60 -112 60 -112 69 0
70 0 0 195 c0 107 3 195 8 195 4 1 21 12 37 25 l30 25 -107 0 -107 0 -29 -52z
m110 -138 c20 0 20 -1 5 -18 -10 -10 -17 -31 -17 -46 0 -23 -3 -27 -17 -21
-10 4 -22 7 -28 7 -5 0 -18 -3 -27 -7 -15 -6 -18 -2 -18 21 0 15 -7 36 -17 46
-15 17 -15 18 5 18 12 0 29 11 39 26 l17 26 19 -26 c10 -14 28 -26 39 -26z"/>
<path d="M2393 1349 l37 -31 0 -189 0 -189 69 0 69 0 63 106 c34 58 62 111 62
118 0 6 -28 57 -62 114 l-62 102 -107 0 -107 -1 38 -30z m172 -129 c3 -11 17
-23 31 -26 24 -6 24 -7 8 -25 -10 -11 -15 -28 -12 -44 5 -21 2 -25 -11 -19
-20 9 -42 9 -62 0 -13 -6 -16 -2 -11 19 3 16 -2 33 -12 44 -16 18 -16 19 8 25
14 3 28 15 31 26 3 11 10 20 15 20 5 0 12 -9 15 -20z"/>
<path d="M2320 1346 c0 -10 8 -16 22 -16 12 0 19 1 17 3 -2 1 -12 9 -21 16
-15 12 -18 11 -18 -3z"/>
<path d="M640 1340 c-12 -8 -11 -10 8 -10 12 0 22 5 22 10 0 13 -11 13 -30 0z"/>
</g>
</svg>
